<?xml version="1.0" standalone="no"?>
<!DOCTYPE svg PUBLIC "-//W3C//DTD SVG 20010904//EN"
 "http://www.w3.org/TR/2001/REC-SVG-20010904/DTD/svg10.dtd">
<svg version="1.0" xmlns="http://www.w3.org/2000/svg"
 width="260.000000pt" height="260.000000pt" viewBox="0 0 260.000000 260.000000"
 preserveAspectRatio="xMidYMid meet">
<metadata>
Created by potrace 1.11, written by Peter Selinger 2001-2013
</metadata>
<g transform="translate(0.000000,260.000000) scale(0.100000,-0.100000)"
fill="#000000" stroke="none">
<path d="M605 2120 c-143 -20 -273 -89 -379 -201 -235 -249 -235 -629 0 -878
128 -136 278 -202 459 -204 121 -1 185 13 290 63 91 44 155 94 222 174 l46 54
37 -47 c203 -257 562 -324 844 -159 132 78 242 216 289 363 32 100 32 290 0
390 -47 147 -157 285 -289 363 -282 165 -641 98 -844 -159 l-37 -47 -46 54
c-67 80 -131 130 -222 174 -119 57 -246 77 -370 60z m209 -138 c53 -45 86 -81
86 -92 0 -11 12 -26 29 -35 16 -8 43 -31 60 -52 52 -63 38 -143 -34 -199 -33
-25 -35 -29 -34 -88 l0 -61 111 -95 c61 -52 116 -103 121 -112 12 -19 -11 -52
-149 -211 l-85 -97 -219 0 -219 0 -108 119 c-60 66 -118 136 -129 156 l-19 36
60 57 c33 32 73 68 90 81 29 22 29 23 12 53 -33 58 -15 112 40 113 26 1 30
-16 8 -35 -19 -16 -19 -30 0 -57 28 -40 45 -18 45 56 0 64 -1 67 -35 90 -75
51 -98 142 -51 199 14 16 45 39 70 53 30 15 47 32 51 49 3 14 10 42 16 62 l9
37 48 -14 c64 -20 63 -20 96 26 15 22 32 39 36 37 5 -2 47 -36 94 -76z m895
-230 c17 -31 74 -42 128 -25 54 16 186 13 241 -7 l32 -12 0 -240 0 -240 -32 6
c-111 24 -143 25 -215 10 -65 -13 -81 -13 -146 0 -59 12 -86 13 -133 5 -32 -6
-70 -12 -84 -13 l-25 -1 -3 229 c-1 149 1 233 8 241 6 7 26 16 45 19 19 4 39
16 45 26 15 28 124 29 139 2z"/>
<path d="M687 1991 c-26 -37 -29 -39 -60 -30 -31 8 -32 8 -11 -9 137 -110 144
-117 144 -149 0 -18 -4 -33 -10 -33 -5 0 -10 11 -10 25 0 19 -21 42 -86 97
-47 40 -89 74 -93 76 -4 1 -20 -41 -34 -95 -31 -113 -29 -119 58 -159 61 -29
182 -33 264 -8 46 13 52 18 48 37 -3 12 -9 52 -12 90 l-7 67 -74 63 c-41 34
-78 63 -82 64 -4 2 -19 -15 -35 -36z"/>
<path d="M449 1826 c-137 -94 -13 -247 212 -263 182 -13 339 60 339 157 0 31
-35 86 -68 108 l-24 16 7 -81 7 -80 -48 -17 c-27 -9 -85 -20 -129 -23 -106 -7
-181 13 -237 65 l-40 38 15 52 c9 29 13 52 9 52 -4 0 -23 -11 -43 -24z"/>
<path d="M508 1497 c3 -70 4 -73 38 -95 27 -17 39 -20 54 -12 24 13 180 13
180 0 0 -6 -27 -10 -60 -10 -48 0 -61 -4 -69 -19 -9 -15 -6 -22 12 -34 35 -23
57 -16 145 42 l82 54 0 72 0 72 -47 -12 -48 -12 -3 -57 -3 -56 -39 0 c-29 0
-40 4 -40 15 0 10 10 15 30 15 28 0 30 2 30 40 l0 40 -78 0 c-44 0 -101 7
-128 15 -27 8 -51 15 -54 15 -3 0 -4 -33 -2 -73z"/>
<path d="M397 1523 c-13 -12 -7 -48 13 -78 11 -16 20 -26 20 -22 0 4 -7 19
-16 32 -9 14 -14 36 -12 50 6 27 5 29 -5 18z"/>
<path d="M446 1380 c-14 -28 -23 -57 -20 -65 4 -8 1 -15 -5 -15 -21 0 -24 32
-7 60 9 16 16 32 16 37 0 4 -10 -8 -21 -27 -18 -29 -20 -39 -10 -64 6 -16 8
-32 6 -35 -10 -9 -27 17 -34 49 l-6 33 -58 -52 c-55 -51 -56 -53 -43 -79 8
-15 60 -78 115 -139 l102 -113 49 0 50 0 -46 92 -46 92 27 24 c15 12 26 24 24
25 -2 1 -15 11 -28 22 -14 11 -21 14 -17 8 4 -8 1 -13 -8 -13 -9 0 -16 -4 -16
-8 0 -15 -38 -10 -54 7 -14 15 -13 19 8 44 13 15 27 23 31 19 5 -4 5 -2 1 5
-6 11 51 62 87 77 8 3 6 9 -7 17 -10 6 -27 20 -37 30 -11 11 -21 19 -23 19 -3
0 -16 -23 -30 -50z"/>
<path d="M930 1320 l0 -101 -31 -11 -31 -11 27 -21 27 -22 -36 -89 c-20 -49
-36 -90 -36 -92 0 -2 15 -3 34 -3 28 0 41 8 70 43 l35 42 -34 3 c-52 5 -42 22
12 22 42 0 49 4 82 42 20 23 48 58 63 78 l27 37 -42 39 c-23 22 -70 64 -104
93 l-63 53 0 -102z"/>
<path d="M867 1378 c-21 -19 -30 -51 -61 -203 -20 -99 -36 -186 -36 -192 0 -7
12 -13 28 -13 25 0 30 7 60 83 17 45 32 87 32 93 0 5 -14 18 -31 28 -35 21
-27 40 22 51 l29 7 0 84 c0 46 -4 84 -9 84 -6 0 -21 -10 -34 -22z"/>
<path d="M595 1364 c-103 -54 -116 -64 -105 -84 16 -31 31 -25 95 40 61 61 63
71 10 44z"/>
<path d="M788 1329 c-28 -21 -28 -23 -1 -89 3 -9 11 11 19 45 7 33 12 61 11
62 -1 1 -14 -7 -29 -18z"/>
<path d="M604 1305 c-3 -8 0 -33 8 -57 l14 -42 13 47 c6 27 9 52 6 58 -9 14
-35 11 -41 -6z"/>
<path d="M670 1270 c0 -36 22 -70 45 -70 23 0 35 22 35 68 0 19 -5 22 -40 22
-33 0 -40 -3 -40 -20z"/>
<path d="M552 1257 l-23 -24 23 -16 23 -17 -30 -24 -29 -25 44 -91 c40 -82 47
-90 73 -90 34 0 35 -8 -21 183 l-38 128 -22 -24z"/>
<path d="M646 1185 c-7 -37 1 -102 14 -110 12 -8 21 91 10 119 -13 34 -16 33
-24 -9z"/>
<path d="M755 1178 c-4 -26 -3 -59 3 -75 9 -26 10 -24 17 29 9 73 -9 117 -20
46z"/>
<path d="M691 1085 c-7 -47 -11 -92 -7 -100 7 -18 52 -20 59 -2 7 20 -17 180
-29 184 -6 2 -16 -30 -23 -82z"/>
<path d="M1590 1638 c0 -101 0 -101 20 -83 17 15 24 16 45 7 l25 -12 0 95 0
95 -45 0 -45 0 0 -102z"/>
<path d="M1833 1698 l-33 -11 0 -214 0 -213 28 7 c36 11 201 10 230 0 l22 -8
0 215 0 215 -37 10 c-47 13 -167 12 -210 -1z"/>
<path d="M1518 1693 c-16 -4 -18 -23 -18 -219 l0 -214 28 7 c30 9 183 11 222
3 l25 -5 3 205 c2 184 1 206 -15 217 -9 7 -25 13 -35 13 -16 0 -18 -10 -18
-105 0 -58 -3 -105 -7 -105 -4 0 -20 12 -35 27 l-28 27 -28 -27 c-15 -15 -31
-27 -35 -27 -4 0 -7 47 -7 105 0 112 0 112 -52 98z"/>
</g>
</svg>
